<svg xmlns="http://www.w3.org/2000/svg" viewBox="0 0 660.0 540.0" width="660.0" height="540.0">
<defs><filter id="g" x="-5%" y="-5%" width="110%" height="110%"><feDropShadow dx="0" dy="2" stdDeviation="2" flood-opacity=".35"/></filter></defs>
<rect x="0" y="0" width="660.0" height="540.0" rx="12" fill="#FFFFFF" stroke="#BDBDBD" stroke-width="2"/>
<circle cx="50.0" cy="50.0" r="6.4" fill="#9E9E9E"/>
<circle cx="50.0" cy="70.0" r="6.4" fill="#9E9E9E"/>
<circle cx="50.0" cy="90.0" r="6.4" fill="#9E9E9E"/>
<circle cx="50.0" cy="110.0" r="6.4" fill="#9E9E9E"/>
<circle cx="50.0" cy="130.0" r="6.4" fill="#9E9E9E"/>
<circle cx="50.0" cy="150.0" r="6.4" fill="#9E9E9E"/>
<circle cx="50.0" cy="170.0" r="6.4" fill="#9E9E9E"/>
<circle cx="50.0" cy="190.0" r="6.4" fill="#9E9E9E"/>
<circle cx="50.0" cy="210.0" r="6.4" fill="#9E9E9E"/>
<circle cx="50.0" cy="230.0" r="6.4" fill="#9E9E9E"/>
<circle cx="50.0" cy="250.0" r="6.4" fill="#9E9E9E"/>
<circle cx="50.0" cy="270.0" r="6.4" fill="#9E9E9E"/>
<circle cx="50.0" cy="290.0" r="6.4" fill="#9E9E9E"/>
<circle cx="50.0" cy="310.0" r="6.4" fill="#9E9E9E"/>
<circle cx="50.0" cy="330.0" r="6.4" fill="#9E9E9E"/>
<circle cx="50.0" cy="350.0" r="6.4" fill="#9E9E9E"/>
<circle cx="50.0" cy="370.0" r="6.4" fill="#9E9E9E"/>
<circle cx="50.0" cy="390.0" r="6.4" fill="#9E9E9E"/>
<circle cx="50.0" cy="410.0" r="6.4" fill="#9E9E9E"/>
<circle cx="50.0" cy="430.0" r="6.4" fill="#9E9E9E"/>
<circle cx="50.0" cy="450.0" r="6.4" fill="#9E9E9E"/>
<circle cx="50.0" cy="470.0" r="6.4" fill="#9E9E9E"/>
<circle cx="50.0" cy="490.0" r="6.4" fill="#9E9E9E"/>
<circle cx="70.0" cy="50.0" r="6.4" fill="#9E9E9E"/>
<circle cx="70.0" cy="70.0" r="6.4" fill="#9E9E9E"/>
<circle cx="70.0" cy="90.0" r="6.4" fill="#9E9E9E"/>
<circle cx="70.0" cy="110.0" r="6.4" fill="#9E9E9E"/>
<circle cx="70.0" cy="130.0" r="6.4" fill="#9E9E9E"/>
<circle cx="70.0" cy="150.0" r="6.4" fill="#9E9E9E"/>
<circle cx="70.0" cy="170.0" r="6.4" fill="#9E9E9E"/>
<circle cx="70.0" cy="190.0" r="6.4" fill="#9E9E9E"/>
<circle cx="70.0" cy="210.0" r="6.4" fill="#9E9E9E"/>
<circle cx="70.0" cy="230.0" r="6.4" fill="#9E9E9E"/>
<circle cx="70.0" cy="250.0" r="6.4" fill="#9E9E9E"/>
<circle cx="70.0" cy="270.0" r="6.4" fill="#9E9E9E"/>
<circle cx="70.0" cy="290.0" r="6.4" fill="#9E9E9E"/>
<circle cx="70.0" cy="310.0" r="6.4" fill="#9E9E9E"/>
<circle cx="70.0" cy="330.0" r="6.4" fill="#9E9E9E"/>
<circle cx="70.0" cy="350.0" r="6.4" fill="#9E9E9E"/>
<circle cx="70.0" cy="370.0" r="6.4" fill="#9E9E9E"/>
<circle cx="70.0" cy="390.0" r="6.4" fill="#9E9E9E"/>
<circle cx="70.0" cy="410.0" r="6.4" fill="#9E9E9E"/>
<circle cx="70.0" cy="430.0" r="6.4" fill="#9E9E9E"/>
<circle cx="70.0" cy="450.0" r="6.4" fill="#9E9E9E"/>
<circle cx="70.0" cy="470.0" r="6.4" fill="#9E9E9E"/>
<circle cx="70.0" cy="490.0" r="6.4" fill="#9E9E9E"/>
<circle cx="90.0" cy="50.0" r="6.4" fill="#9E9E9E"/>
<circle cx="90.0" cy="70.0" r="6.4" fill="#9E9E9E"/>
<circle cx="90.0" cy="90.0" r="6.4" fill="#9E9E9E"/>
<circle cx="90.0" cy="110.0" r="6.4" fill="#9E9E9E"/>
<circle cx="90.0" cy="130.0" r="6.4" fill="#9E9E9E"/>
<circle cx="90.0" cy="150.0" r="6.4" fill="#9E9E9E"/>
<circle cx="90.0" cy="170.0" r="6.4" fill="#9E9E9E"/>
<circle cx="90.0" cy="190.0" r="6.4" fill="#9E9E9E"/>
<circle cx="90.0" cy="210.0" r="6.4" fill="#9E9E9E"/>
<circle cx="90.0" cy="230.0" r="6.4" fill="#9E9E9E"/>
<circle cx="90.0" cy="250.0" r="6.4" fill="#9E9E9E"/>
<circle cx="90.0" cy="270.0" r="6.4" fill="#9E9E9E"/>
<circle cx="90.0" cy="290.0" r="6.4" fill="#9E9E9E"/>
<circle cx="90.0" cy="310.0" r="6.4" fill="#9E9E9E"/>
<circle cx="90.0" cy="330.0" r="6.4" fill="#9E9E9E"/>
<circle cx="90.0" cy="350.0" r="6.4" fill="#9E9E9E"/>
<circle cx="90.0" cy="370.0" r="6.4" fill="#9E9E9E"/>
<circle cx="90.0" cy="390.0" r="6.4" fill="#9E9E9E"/>
<circle cx="90.0" cy="410.0" r="6.4" fill="#9E9E9E"/>
<circle cx="90.0" cy="430.0" r="6.4" fill="#9E9E9E"/>
<circle cx="90.0" cy="450.0" r="6.4" fill="#9E9E9E"/>
<circle cx="90.0" cy="470.0" r="6.4" fill="#9E9E9E"/>
<circle cx="90.0" cy="490.0" r="6.4" fill="#9E9E9E"/>
<circle cx="110.0" cy="50.0" r="6.4" fill="#9E9E9E"/>
<circle cx="110.0" cy="70.0" r="6.4" fill="#9E9E9E"/>
<circle cx="110.0" cy="90.0" r="6.4" fill="#9E9E9E"/>
<circle cx="110.0" cy="110.0" r="6.4" fill="#9E9E9E"/>
<circle cx="110.0" cy="130.0" r="6.4" fill="#9E9E9E"/>
<circle cx="110.0" cy="150.0" r="6.4" fill="#9E9E9E"/>
<circle cx="110.0" cy="170.0" r="6.4" fill="#9E9E9E"/>
<circle cx="110.0" cy="190.0" r="6.4" fill="#9E9E9E"/>
<circle cx="110.0" cy="210.0" r="6.4" fill="#9E9E9E"/>
<circle cx="110.0" cy="230.0" r="6.4" fill="#9E9E9E"/>
<circle cx="110.0" cy="250.0" r="6.4" fill="#9E9E9E"/>
<circle cx="110.0" cy="270.0" r="6.4" fill="#9E9E9E"/>
<circle cx="110.0" cy="290.0" r="6.4" fill="#9E9E9E"/>
<circle cx="110.0" cy="310.0" r="6.4" fill="#9E9E9E"/>
<circle cx="110.0" cy="330.0" r="6.4" fill="#9E9E9E"/>
<circle cx="110.0" cy="350.0" r="6.4" fill="#9E9E9E"/>
<circle cx="110.0" cy="370.0" r="6.4" fill="#9E9E9E"/>
<circle cx="110.0" cy="390.0" r="6.4" fill="#9E9E9E"/>
<circle cx="110.0" cy="410.0" r="6.4" fill="#9E9E9E"/>
<circle cx="110.0" cy="430.0" r="6.4" fill="#9E9E9E"/>
<circle cx="110.0" cy="450.0" r="6.4" fill="#9E9E9E"/>
<circle cx="110.0" cy="470.0" r="6.4" fill="#9E9E9E"/>
<circle cx="110.0" cy="490.0" r="6.4" fill="#9E9E9E"/>
<circle cx="130.0" cy="50.0" r="6.4" fill="#9E9E9E"/>
<circle cx="130.0" cy="70.0" r="6.4" fill="#9E9E9E"/>
<circle cx="130.0" cy="90.0" r="6.4" fill="#9E9E9E"/>
<circle cx="130.0" cy="110.0" r="6.4" fill="#9E9E9E"/>
<circle cx="130.0" cy="130.0" r="6.4" fill="#9E9E9E"/>
<circle cx="130.0" cy="150.0" r="6.4" fill="#9E9E9E"/>
<circle cx="130.0" cy="170.0" r="6.4" fill="#9E9E9E"/>
<circle cx="130.0" cy="190.0" r="6.4" fill="#9E9E9E"/>
<circle cx="130.0" cy="210.0" r="6.4" fill="#9E9E9E"/>
<circle cx="130.0" cy="230.0" r="6.4" fill="#9E9E9E"/>
<circle cx="130.0" cy="250.0" r="6.4" fill="#9E9E9E"/>
<circle cx="130.0" cy="270.0" r="6.4" fill="#9E9E9E"/>
<circle cx="130.0" cy="290.0" r="6.4" fill="#9E9E9E"/>
<circle cx="130.0" cy="310.0" r="6.4" fill="#9E9E9E"/>
<circle cx="130.0" cy="330.0" r="6.4" fill="#9E9E9E"/>
<circle cx="130.0" cy="350.0" r="6.4" fill="#9E9E9E"/>
<circle cx="130.0" cy="370.0" r="6.4" fill="#9E9E9E"/>
<circle cx="130.0" cy="390.0" r="6.4" fill="#9E9E9E"/>
<circle cx="130.0" cy="410.0" r="6.4" fill="#9E9E9E"/>
<circle cx="130.0" cy="430.0" r="6.4" fill="#9E9E9E"/>
<circle cx="130.0" cy="450.0" r="6.4" fill="#9E9E9E"/>
<circle cx="130.0" cy="470.0" r="6.4" fill="#9E9E9E"/>
<circle cx="130.0" cy="490.0" r="6.4" fill="#9E9E9E"/>
<circle cx="150.0" cy="50.0" r="6.4" fill="#9E9E9E"/>
<circle cx="150.0" cy="70.0" r="6.4" fill="#9E9E9E"/>
<circle cx="150.0" cy="90.0" r="6.4" fill="#9E9E9E"/>
<circle cx="150.0" cy="110.0" r="6.4" fill="#9E9E9E"/>
<circle cx="150.0" cy="130.0" r="6.4" fill="#9E9E9E"/>
<circle cx="150.0" cy="150.0" r="6.4" fill="#9E9E9E"/>
<circle cx="150.0" cy="170.0" r="6.4" fill="#9E9E9E"/>
<circle cx="150.0" cy="190.0" r="6.4" fill="#9E9E9E"/>
<circle cx="150.0" cy="210.0" r="6.4" fill="#9E9E9E"/>
<circle cx="150.0" cy="230.0" r="6.4" fill="#9E9E9E"/>
<circle cx="150.0" cy="250.0" r="6.4" fill="#9E9E9E"/>
<circle cx="150.0" cy="270.0" r="6.4" fill="#9E9E9E"/>
<circle cx="150.0" cy="290.0" r="6.4" fill="#9E9E9E"/>
<circle cx="150.0" cy="310.0" r="6.4" fill="#9E9E9E"/>
<circle cx="150.0" cy="330.0" r="6.4" fill="#9E9E9E"/>
<circle cx="150.0" cy="350.0" r="6.4" fill="#9E9E9E"/>
<circle cx="150.0" cy="370.0" r="6.4" fill="#9E9E9E"/>
<circle cx="150.0" cy="390.0" r="6.4" fill="#9E9E9E"/>
<circle cx="150.0" cy="410.0" r="6.4" fill="#9E9E9E"/>
<circle cx="150.0" cy="430.0" r="6.4" fill="#9E9E9E"/>
<circle cx="150.0" cy="450.0" r="6.4" fill="#9E9E9E"/>
<circle cx="150.0" cy="470.0" r="6.4" fill="#9E9E9E"/>
<circle cx="150.0" cy="490.0" r="6.4" fill="#9E9E9E"/>
<circle cx="170.0" cy="50.0" r="6.4" fill="#9E9E9E"/>
<circle cx="170.0" cy="70.0" r="6.4" fill="#9E9E9E"/>
<circle cx="170.0" cy="90.0" r="6.4" fill="#9E9E9E"/>
<circle cx="170.0" cy="110.0" r="6.4" fill="#9E9E9E"/>
<circle cx="170.0" cy="130.0" r="6.4" fill="#9E9E9E"/>
<circle cx="170.0" cy="150.0" r="6.4" fill="#9E9E9E"/>
<circle cx="170.0" cy="170.0" r="6.4" fill="#9E9E9E"/>
<circle cx="170.0" cy="190.0" r="6.4" fill="#9E9E9E"/>
<circle cx="170.0" cy="210.0" r="6.4" fill="#9E9E9E"/>
<circle cx="170.0" cy="230.0" r="6.4" fill="#9E9E9E"/>
<circle cx="170.0" cy="250.0" r="6.4" fill="#9E9E9E"/>
<circle cx="170.0" cy="270.0" r="6.4" fill="#9E9E9E"/>
<circle cx="170.0" cy="290.0" r="6.4" fill="#9E9E9E"/>
<circle cx="170.0" cy="310.0" r="6.4" fill="#9E9E9E"/>
<circle cx="170.0" cy="330.0" r="6.4" fill="#9E9E9E"/>
<circle cx="170.0" cy="350.0" r="6.4" fill="#9E9E9E"/>
<circle cx="170.0" cy="370.0" r="6.4" fill="#9E9E9E"/>
<circle cx="170.0" cy="390.0" r="6.4" fill="#9E9E9E"/>
<circle cx="170.0" cy="410.0" r="6.4" fill="#9E9E9E"/>
<circle cx="170.0" cy="430.0" r="6.4" fill="#9E9E9E"/>
<circle cx="170.0" cy="450.0" r="6.4" fill="#9E9E9E"/>
<circle cx="170.0" cy="470.0" r="6.4" fill="#9E9E9E"/>
<circle cx="170.0" cy="490.0" r="6.4" fill="#9E9E9E"/>
<circle cx="190.0" cy="50.0" r="6.4" fill="#9E9E9E"/>
<circle cx="190.0" cy="70.0" r="6.4" fill="#9E9E9E"/>
<circle cx="190.0" cy="90.0" r="6.4" fill="#9E9E9E"/>
<circle cx="190.0" cy="110.0" r="6.4" fill="#9E9E9E"/>
<circle cx="190.0" cy="130.0" r="6.4" fill="#9E9E9E"/>
<circle cx="190.0" cy="150.0" r="6.4" fill="#9E9E9E"/>
<circle cx="190.0" cy="170.0" r="6.4" fill="#9E9E9E"/>
<circle cx="190.0" cy="190.0" r="6.4" fill="#9E9E9E"/>
<circle cx="190.0" cy="210.0" r="6.4" fill="#9E9E9E"/>
<circle cx="190.0" cy="230.0" r="6.4" fill="#9E9E9E"/>
<circle cx="190.0" cy="250.0" r="6.4" fill="#9E9E9E"/>
<circle cx="190.0" cy="270.0" r="6.4" fill="#9E9E9E"/>
<circle cx="190.0" cy="290.0" r="6.4" fill="#9E9E9E"/>
<circle cx="190.0" cy="310.0" r="6.4" fill="#9E9E9E"/>
<circle cx="190.0" cy="330.0" r="6.4" fill="#9E9E9E"/>
<circle cx="190.0" cy="350.0" r="6.4" fill="#9E9E9E"/>
<circle cx="190.0" cy="370.0" r="6.4" fill="#9E9E9E"/>
<circle cx="190.0" cy="390.0" r="6.4" fill="#9E9E9E"/>
<circle cx="190.0" cy="410.0" r="6.4" fill="#9E9E9E"/>
<circle cx="190.0" cy="430.0" r="6.4" fill="#9E9E9E"/>
<circle cx="190.0" cy="450.0" r="6.4" fill="#9E9E9E"/>
<circle cx="190.0" cy="470.0" r="6.4" fill="#9E9E9E"/>
<circle cx="190.0" cy="490.0" r="6.4" fill="#9E9E9E"/>
<circle cx="210.0" cy="50.0" r="6.4" fill="#9E9E9E"/>
<circle cx="210.0" cy="70.0" r="6.4" fill="#9E9E9E"/>
<circle cx="210.0" cy="90.0" r="6.4" fill="#9E9E9E"/>
<circle cx="210.0" cy="110.0" r="6.4" fill="#9E9E9E"/>
<circle cx="210.0" cy="130.0" r="6.4" fill="#9E9E9E"/>
<circle cx="210.0" cy="150.0" r="6.4" fill="#9E9E9E"/>
<circle cx="210.0" cy="170.0" r="6.4" fill="#9E9E9E"/>
<circle cx="210.0" cy="190.0" r="6.4" fill="#9E9E9E"/>
<circle cx="210.0" cy="210.0" r="6.4" fill="#9E9E9E"/>
<circle cx="210.0" cy="230.0" r="6.4" fill="#9E9E9E"/>
<circle cx="210.0" cy="250.0" r="6.4" fill="#9E9E9E"/>
<circle cx="210.0" cy="270.0" r="6.4" fill="#9E9E9E"/>
<circle cx="210.0" cy="290.0" r="6.4" fill="#9E9E9E"/>
<circle cx="210.0" cy="310.0" r="6.4" fill="#9E9E9E"/>
<circle cx="210.0" cy="330.0" r="6.4" fill="#9E9E9E"/>
<circle cx="210.0" cy="350.0" r="6.4" fill="#9E9E9E"/>
<circle cx="210.0" cy="370.0" r="6.4" fill="#9E9E9E"/>
<circle cx="210.0" cy="390.0" r="6.4" fill="#9E9E9E"/>
<circle cx="210.0" cy="410.0" r="6.4" fill="#9E9E9E"/>
<circle cx="210.0" cy="430.0" r="6.4" fill="#9E9E9E"/>
<circle cx="210.0" cy="450.0" r="6.4" fill="#9E9E9E"/>
<circle cx="210.0" cy="470.0" r="6.4" fill="#9E9E9E"/>
<circle cx="210.0" cy="490.0" r="6.4" fill="#9E9E9E"/>
<circle cx="230.0" cy="50.0" r="6.4" fill="#9E9E9E"/>
<circle cx="230.0" cy="70.0" r="6.4" fill="#9E9E9E"/>
<circle cx="230.0" cy="90.0" r="6.4" fill="#9E9E9E"/>
<circle cx="230.0" cy="110.0" r="6.4" fill="#9E9E9E"/>
<circle cx="230.0" cy="130.0" r="6.4" fill="#9E9E9E"/>
<circle cx="230.0" cy="150.0" r="6.4" fill="#9E9E9E"/>
<circle cx="230.0" cy="170.0" r="6.4" fill="#9E9E9E"/>
<circle cx="230.0" cy="190.0" r="6.4" fill="#9E9E9E"/>
<circle cx="230.0" cy="210.0" r="6.4" fill="#9E9E9E"/>
<circle cx="230.0" cy="230.0" r="6.4" fill="#9E9E9E"/>
<circle cx="230.0" cy="250.0" r="6.4" fill="#9E9E9E"/>
<circle cx="230.0" cy="270.0" r="6.4" fill="#9E9E9E"/>
<circle cx="230.0" cy="290.0" r="6.4" fill="#9E9E9E"/>
<circle cx="230.0" cy="310.0" r="6.4" fill="#9E9E9E"/>
<circle cx="230.0" cy="330.0" r="6.4" fill="#9E9E9E"/>
<circle cx="230.0" cy="350.0" r="6.4" fill="#9E9E9E"/>
<circle cx="230.0" cy="370.0" r="6.4" fill="#9E9E9E"/>
<circle cx="230.0" cy="390.0" r="6.4" fill="#9E9E9E"/>
<circle cx="230.0" cy="410.0" r="6.4" fill="#9E9E9E"/>
<circle cx="230.0" cy="430.0" r="6.4" fill="#9E9E9E"/>
<circle cx="230.0" cy="450.0" r="6.4" fill="#9E9E9E"/>
<circle cx="230.0" cy="470.0" r="6.4" fill="#9E9E9E"/>
<circle cx="230.0" cy="490.0" r="6.4" fill="#9E9E9E"/>
<circle cx="250.0" cy="50.0" r="6.4" fill="#9E9E9E"/>
<circle cx="250.0" cy="70.0" r="6.4" fill="#9E9E9E"/>
<circle cx="250.0" cy="90.0" r="6.4" fill="#9E9E9E"/>
<circle cx="250.0" cy="110.0" r="6.4" fill="#9E9E9E"/>
<circle cx="250.0" cy="130.0" r="6.4" fill="#9E9E9E"/>
<circle cx="250.0" cy="150.0" r="6.4" fill="#9E9E9E"/>
<circle cx="250.0" cy="170.0" r="6.4" fill="#9E9E9E"/>
<circle cx="250.0" cy="190.0" r="6.4" fill="#9E9E9E"/>
<circle cx="250.0" cy="210.0" r="6.4" fill="#9E9E9E"/>
<circle cx="250.0" cy="230.0" r="6.4" fill="#9E9E9E"/>
<circle cx="250.0" cy="250.0" r="6.4" fill="#9E9E9E"/>
<circle cx="250.0" cy="270.0" r="6.4" fill="#9E9E9E"/>
<circle cx="250.0" cy="290.0" r="6.4" fill="#9E9E9E"/>
<circle cx="250.0" cy="310.0" r="6.4" fill="#9E9E9E"/>
<circle cx="250.0" cy="330.0" r="6.4" fill="#9E9E9E"/>
<circle cx="250.0" cy="350.0" r="6.4" fill="#9E9E9E"/>
<circle cx="250.0" cy="370.0" r="6.4" fill="#9E9E9E"/>
<circle cx="250.0" cy="390.0" r="6.4" fill="#9E9E9E"/>
<circle cx="250.0" cy="410.0" r="6.4" fill="#9E9E9E"/>
<circle cx="250.0" cy="430.0" r="6.4" fill="#9E9E9E"/>
<circle cx="250.0" cy="450.0" r="6.4" fill="#9E9E9E"/>
<circle cx="250.0" cy="470.0" r="6.4" fill="#9E9E9E"/>
<circle cx="250.0" cy="490.0" r="6.4" fill="#9E9E9E"/>
<circle cx="270.0" cy="50.0" r="6.4" fill="#9E9E9E"/>
<circle cx="270.0" cy="70.0" r="6.4" fill="#9E9E9E"/>
<circle cx="270.0" cy="90.0" r="6.4" fill="#9E9E9E"/>
<circle cx="270.0" cy="110.0" r="6.4" fill="#9E9E9E"/>
<circle cx="270.0" cy="130.0" r="6.4" fill="#9E9E9E"/>
<circle cx="270.0" cy="150.0" r="6.4" fill="#9E9E9E"/>
<circle cx="270.0" cy="170.0" r="6.4" fill="#9E9E9E"/>
<circle cx="270.0" cy="190.0" r="6.4" fill="#9E9E9E"/>
<circle cx="270.0" cy="210.0" r="6.4" fill="#9E9E9E"/>
<circle cx="270.0" cy="230.0" r="6.4" fill="#9E9E9E"/>
<circle cx="270.0" cy="250.0" r="6.4" fill="#9E9E9E"/>
<circle cx="270.0" cy="270.0" r="6.4" fill="#9E9E9E"/>
<circle cx="270.0" cy="290.0" r="6.4" fill="#9E9E9E"/>
<circle cx="270.0" cy="310.0" r="6.4" fill="#9E9E9E"/>
<circle cx="270.0" cy="330.0" r="6.4" fill="#9E9E9E"/>
<circle cx="270.0" cy="350.0" r="6.4" fill="#9E9E9E"/>
<circle cx="270.0" cy="370.0" r="6.4" fill="#9E9E9E"/>
<circle cx="270.0" cy="390.0" r="6.4" fill="#9E9E9E"/>
<circle cx="270.0" cy="410.0" r="6.4" fill="#9E9E9E"/>
<circle cx="270.0" cy="430.0" r="6.4" fill="#9E9E9E"/>
<circle cx="270.0" cy="450.0" r="6.4" fill="#9E9E9E"/>
<circle cx="270.0" cy="470.0" r="6.4" fill="#9E9E9E"/>
<circle cx="270.0" cy="490.0" r="6.4" fill="#9E9E9E"/>
<circle cx="290.0" cy="50.0" r="6.4" fill="#9E9E9E"/>
<circle cx="290.0" cy="70.0" r="6.4" fill="#9E9E9E"/>
<circle cx="290.0" cy="90.0" r="6.4" fill="#9E9E9E"/>
<circle cx="290.0" cy="110.0" r="6.4" fill="#9E9E9E"/>
<circle cx="290.0" cy="130.0" r="6.4" fill="#9E9E9E"/>
<circle cx="290.0" cy="150.0" r="6.4" fill="#9E9E9E"/>
<circle cx="290.0" cy="170.0" r="6.4" fill="#9E9E9E"/>
<circle cx="290.0" cy="190.0" r="6.4" fill="#9E9E9E"/>
<circle cx="290.0" cy="210.0" r="6.4" fill="#9E9E9E"/>
<circle cx="290.0" cy="230.0" r="6.4" fill="#9E9E9E"/>
<circle cx="290.0" cy="250.0" r="6.4" fill="#9E9E9E"/>
<circle cx="290.0" cy="270.0" r="6.4" fill="#9E9E9E"/>
<circle cx="290.0" cy="290.0" r="6.4" fill="#9E9E9E"/>
<circle cx="290.0" cy="310.0" r="6.4" fill="#9E9E9E"/>
<circle cx="290.0" cy="330.0" r="6.4" fill="#9E9E9E"/>
<circle cx="290.0" cy="350.0" r="6.4" fill="#9E9E9E"/>
<circle cx="290.0" cy="370.0" r="6.4" fill="#9E9E9E"/>
<circle cx="290.0" cy="390.0" r="6.4" fill="#9E9E9E"/>
<circle cx="290.0" cy="410.0" r="6.4" fill="#9E9E9E"/>
<circle cx="290.0" cy="430.0" r="6.4" fill="#9E9E9E"/>
<circle cx="290.0" cy="450.0" r="6.4" fill="#9E9E9E"/>
<circle cx="290.0" cy="470.0" r="6.4" fill="#9E9E9E"/>
<circle cx="290.0" cy="490.0" r="6.4" fill="#9E9E9E"/>
<circle cx="310.0" cy="50.0" r="6.4" fill="#9E9E9E"/>
<circle cx="310.0" cy="70.0" r="6.4" fill="#9E9E9E"/>
<circle cx="310.0" cy="90.0" r="6.4" fill="#9E9E9E"/>
<circle cx="310.0" cy="110.0" r="6.4" fill="#9E9E9E"/>
<circle cx="310.0" cy="130.0" r="6.4" fill="#9E9E9E"/>
<circle cx="310.0" cy="150.0" r="6.4" fill="#9E9E9E"/>
<circle cx="310.0" cy="170.0" r="6.4" fill="#9E9E9E"/>
<circle cx="310.0" cy="190.0" r="6.4" fill="#9E9E9E"/>
<circle cx="310.0" cy="210.0" r="6.4" fill="#9E9E9E"/>
<circle cx="310.0" cy="230.0" r="6.4" fill="#9E9E9E"/>
<circle cx="310.0" cy="250.0" r="6.4" fill="#9E9E9E"/>
<circle cx="310.0" cy="270.0" r="6.4" fill="#9E9E9E"/>
<circle cx="310.0" cy="290.0" r="6.4" fill="#9E9E9E"/>
<circle cx="310.0" cy="310.0" r="6.4" fill="#9E9E9E"/>
<circle cx="310.0" cy="330.0" r="6.4" fill="#9E9E9E"/>
<circle cx="310.0" cy="350.0" r="6.4" fill="#9E9E9E"/>
<circle cx="310.0" cy="370.0" r="6.4" fill="#9E9E9E"/>
<circle cx="310.0" cy="390.0" r="6.4" fill="#9E9E9E"/>
<circle cx="310.0" cy="410.0" r="6.4" fill="#9E9E9E"/>
<circle cx="310.0" cy="430.0" r="6.4" fill="#9E9E9E"/>
<circle cx="310.0" cy="450.0" r="6.4" fill="#9E9E9E"/>
<circle cx="310.0" cy="470.0" r="6.4" fill="#9E9E9E"/>
<circle cx="310.0" cy="490.0" r="6.4" fill="#9E9E9E"/>
<circle cx="330.0" cy="50.0" r="6.4" fill="#9E9E9E"/>
<circle cx="330.0" cy="70.0" r="6.4" fill="#9E9E9E"/>
<circle cx="330.0" cy="90.0" r="6.4" fill="#9E9E9E"/>
<circle cx="330.0" cy="110.0" r="6.4" fill="#9E9E9E"/>
<circle cx="330.0" cy="130.0" r="6.4" fill="#9E9E9E"/>
<circle cx="330.0" cy="150.0" r="6.4" fill="#9E9E9E"/>
<circle cx="330.0" cy="170.0" r="6.4" fill="#9E9E9E"/>
<circle cx="330.0" cy="190.0" r="6.4" fill="#9E9E9E"/>
<circle cx="330.0" cy="210.0" r="6.4" fill="#9E9E9E"/>
<circle cx="330.0" cy="230.0" r="6.4" fill="#9E9E9E"/>
<circle cx="330.0" cy="250.0" r="6.4" fill="#9E9E9E"/>
<circle cx="330.0" cy="270.0" r="6.4" fill="#9E9E9E"/>
<circle cx="330.0" cy="290.0" r="6.4" fill="#9E9E9E"/>
<circle cx="330.0" cy="310.0" r="6.4" fill="#9E9E9E"/>
<circle cx="330.0" cy="330.0" r="6.4" fill="#9E9E9E"/>
<circle cx="330.0" cy="350.0" r="6.4" fill="#9E9E9E"/>
<circle cx="330.0" cy="370.0" r="6.4" fill="#9E9E9E"/>
<circle cx="330.0" cy="390.0" r="6.4" fill="#9E9E9E"/>
<circle cx="330.0" cy="410.0" r="6.4" fill="#9E9E9E"/>
<circle cx="330.0" cy="430.0" r="6.4" fill="#9E9E9E"/>
<circle cx="330.0" cy="450.0" r="6.4" fill="#9E9E9E"/>
<circle cx="330.0" cy="470.0" r="6.4" fill="#9E9E9E"/>
<circle cx="330.0" cy="490.0" r="6.4" fill="#9E9E9E"/>
<circle cx="350.0" cy="50.0" r="6.4" fill="#9E9E9E"/>
<circle cx="350.0" cy="70.0" r="6.4" fill="#9E9E9E"/>
<circle cx="350.0" cy="90.0" r="6.4" fill="#9E9E9E"/>
<circle cx="350.0" cy="110.0" r="6.4" fill="#9E9E9E"/>
<circle cx="350.0" cy="130.0" r="6.4" fill="#9E9E9E"/>
<circle cx="350.0" cy="150.0" r="6.4" fill="#9E9E9E"/>
<circle cx="350.0" cy="170.0" r="6.4" fill="#9E9E9E"/>
<circle cx="350.0" cy="190.0" r="6.4" fill="#9E9E9E"/>
<circle cx="350.0" cy="210.0" r="6.4" fill="#9E9E9E"/>
<circle cx="350.0" cy="230.0" r="6.4" fill="#9E9E9E"/>
<circle cx="350.0" cy="250.0" r="6.4" fill="#9E9E9E"/>
<circle cx="350.0" cy="270.0" r="6.4" fill="#9E9E9E"/>
<circle cx="350.0" cy="290.0" r="6.4" fill="#9E9E9E"/>
<circle cx="350.0" cy="310.0" r="6.4" fill="#9E9E9E"/>
<circle cx="350.0" cy="330.0" r="6.4" fill="#9E9E9E"/>
<circle cx="350.0" cy="350.0" r="6.4" fill="#9E9E9E"/>
<circle cx="350.0" cy="370.0" r="6.4" fill="#9E9E9E"/>
<circle cx="350.0" cy="390.0" r="6.4" fill="#9E9E9E"/>
<circle cx="350.0" cy="410.0" r="6.4" fill="#9E9E9E"/>
<circle cx="350.0" cy="430.0" r="6.4" fill="#9E9E9E"/>
<circle cx="350.0" cy="450.0" r="6.4" fill="#9E9E9E"/>
<circle cx="350.0" cy="470.0" r="6.4" fill="#9E9E9E"/>
<circle cx="350.0" cy="490.0" r="6.4" fill="#9E9E9E"/>
<circle cx="370.0" cy="50.0" r="6.4" fill="#9E9E9E"/>
<circle cx="370.0" cy="70.0" r="6.4" fill="#9E9E9E"/>
<circle cx="370.0" cy="90.0" r="6.4" fill="#9E9E9E"/>
<circle cx="370.0" cy="110.0" r="6.4" fill="#9E9E9E"/>
<circle cx="370.0" cy="130.0" r="6.4" fill="#9E9E9E"/>
<circle cx="370.0" cy="150.0" r="6.4" fill="#9E9E9E"/>
<circle cx="370.0" cy="170.0" r="6.4" fill="#9E9E9E"/>
<circle cx="370.0" cy="190.0" r="6.4" fill="#9E9E9E"/>
<circle cx="370.0" cy="210.0" r="6.4" fill="#9E9E9E"/>
<circle cx="370.0" cy="230.0" r="6.4" fill="#9E9E9E"/>
<circle cx="370.0" cy="250.0" r="6.4" fill="#9E9E9E"/>
<circle cx="370.0" cy="270.0" r="6.4" fill="#9E9E9E"/>
<circle cx="370.0" cy="290.0" r="6.4" fill="#9E9E9E"/>
<circle cx="370.0" cy="310.0" r="6.4" fill="#9E9E9E"/>
<circle cx="370.0" cy="330.0" r="6.4" fill="#9E9E9E"/>
<circle cx="370.0" cy="350.0" r="6.4" fill="#9E9E9E"/>
<circle cx="370.0" cy="370.0" r="6.4" fill="#9E9E9E"/>
<circle cx="370.0" cy="390.0" r="6.4" fill="#9E9E9E"/>
<circle cx="370.0" cy="410.0" r="6.4" fill="#9E9E9E"/>
<circle cx="370.0" cy="430.0" r="6.4" fill="#9E9E9E"/>
<circle cx="370.0" cy="450.0" r="6.4" fill="#9E9E9E"/>
<circle cx="370.0" cy="470.0" r="6.4" fill="#9E9E9E"/>
<circle cx="370.0" cy="490.0" r="6.4" fill="#9E9E9E"/>
<circle cx="390.0" cy="50.0" r="6.4" fill="#9E9E9E"/>
<circle cx="390.0" cy="70.0" r="6.4" fill="#9E9E9E"/>
<circle cx="390.0" cy="90.0" r="6.4" fill="#9E9E9E"/>
<circle cx="390.0" cy="110.0" r="6.4" fill="#9E9E9E"/>
<circle cx="390.0" cy="130.0" r="6.4" fill="#9E9E9E"/>
<circle cx="390.0" cy="150.0" r="6.4" fill="#9E9E9E"/>
<circle cx="390.0" cy="170.0" r="6.4" fill="#9E9E9E"/>
<circle cx="390.0" cy="190.0" r="6.4" fill="#9E9E9E"/>
<circle cx="390.0" cy="210.0" r="6.4" fill="#9E9E9E"/>
<circle cx="390.0" cy="230.0" r="6.4" fill="#9E9E9E"/>
<circle cx="390.0" cy="250.0" r="6.4" fill="#9E9E9E"/>
<circle cx="390.0" cy="270.0" r="6.4" fill="#9E9E9E"/>
<circle cx="390.0" cy="290.0" r="6.4" fill="#9E9E9E"/>
<circle cx="390.0" cy="310.0" r="6.4" fill="#9E9E9E"/>
<circle cx="390.0" cy="330.0" r="6.4" fill="#9E9E9E"/>
<circle cx="390.0" cy="350.0" r="6.4" fill="#9E9E9E"/>
<circle cx="390.0" cy="370.0" r="6.4" fill="#9E9E9E"/>
<circle cx="390.0" cy="390.0" r="6.4" fill="#9E9E9E"/>
<circle cx="390.0" cy="410.0" r="6.4" fill="#9E9E9E"/>
<circle cx="390.0" cy="430.0" r="6.4" fill="#9E9E9E"/>
<circle cx="390.0" cy="450.0" r="6.4" fill="#9E9E9E"/>
<circle cx="390.0" cy="470.0" r="6.4" fill="#9E9E9E"/>
<circle cx="390.0" cy="490.0" r="6.4" fill="#9E9E9E"/>
<circle cx="410.0" cy="50.0" r="6.4" fill="#9E9E9E"/>
<circle cx="410.0" cy="70.0" r="6.4" fill="#9E9E9E"/>
<circle cx="410.0" cy="90.0" r="6.4" fill="#9E9E9E"/>
<circle cx="410.0" cy="110.0" r="6.4" fill="#9E9E9E"/>
<circle cx="410.0" cy="130.0" r="6.4" fill="#9E9E9E"/>
<circle cx="410.0" cy="150.0" r="6.4" fill="#9E9E9E"/>
<circle cx="410.0" cy="170.0" r="6.4" fill="#9E9E9E"/>
<circle cx="410.0" cy="190.0" r="6.4" fill="#9E9E9E"/>
<circle cx="410.0" cy="210.0" r="6.4" fill="#9E9E9E"/>
<circle cx="410.0" cy="230.0" r="6.4" fill="#9E9E9E"/>
<circle cx="410.0" cy="250.0" r="6.4" fill="#9E9E9E"/>
<circle cx="410.0" cy="270.0" r="6.4" fill="#9E9E9E"/>
<circle cx="410.0" cy="290.0" r="6.4" fill="#9E9E9E"/>
<circle cx="410.0" cy="310.0" r="6.4" fill="#9E9E9E"/>
<circle cx="410.0" cy="330.0" r="6.4" fill="#9E9E9E"/>
<circle cx="410.0" cy="350.0" r="6.4" fill="#9E9E9E"/>
<circle cx="410.0" cy="370.0" r="6.4" fill="#9E9E9E"/>
<circle cx="410.0" cy="390.0" r="6.4" fill="#9E9E9E"/>
<circle cx="410.0" cy="410.0" r="6.4" fill="#9E9E9E"/>
<circle cx="410.0" cy="430.0" r="6.4" fill="#9E9E9E"/>
<circle cx="410.0" cy="450.0" r="6.4" fill="#9E9E9E"/>
<circle cx="410.0" cy="470.0" r="6.4" fill="#9E9E9E"/>
<circle cx="410.0" cy="490.0" r="6.4" fill="#9E9E9E"/>
<circle cx="430.0" cy="50.0" r="6.4" fill="#9E9E9E"/>
<circle cx="430.0" cy="70.0" r="6.4" fill="#9E9E9E"/>
<circle cx="430.0" cy="90.0" r="6.4" fill="#9E9E9E"/>
<circle cx="430.0" cy="110.0" r="6.4" fill="#9E9E9E"/>
<circle cx="430.0" cy="130.0" r="6.4" fill="#9E9E9E"/>
<circle cx="430.0" cy="150.0" r="6.4" fill="#9E9E9E"/>
<circle cx="430.0" cy="170.0" r="6.4" fill="#9E9E9E"/>
<circle cx="430.0" cy="190.0" r="6.4" fill="#9E9E9E"/>
<circle cx="430.0" cy="210.0" r="6.4" fill="#9E9E9E"/>
<circle cx="430.0" cy="230.0" r="6.4" fill="#9E9E9E"/>
<circle cx="430.0" cy="250.0" r="6.4" fill="#9E9E9E"/>
<circle cx="430.0" cy="270.0" r="6.4" fill="#9E9E9E"/>
<circle cx="430.0" cy="290.0" r="6.4" fill="#9E9E9E"/>
<circle cx="430.0" cy="310.0" r="6.4" fill="#9E9E9E"/>
<circle cx="430.0" cy="330.0" r="6.4" fill="#9E9E9E"/>
<circle cx="430.0" cy="350.0" r="6.4" fill="#9E9E9E"/>
<circle cx="430.0" cy="370.0" r="6.4" fill="#9E9E9E"/>
<circle cx="430.0" cy="390.0" r="6.4" fill="#9E9E9E"/>
<circle cx="430.0" cy="410.0" r="6.4" fill="#9E9E9E"/>
<circle cx="430.0" cy="430.0" r="6.4" fill="#9E9E9E"/>
<circle cx="430.0" cy="450.0" r="6.4" fill="#9E9E9E"/>
<circle cx="430.0" cy="470.0" r="6.4" fill="#9E9E9E"/>
<circle cx="430.0" cy="490.0" r="6.4" fill="#9E9E9E"/>
<circle cx="450.0" cy="50.0" r="6.4" fill="#9E9E9E"/>
<circle cx="450.0" cy="70.0" r="6.4" fill="#9E9E9E"/>
<circle cx="450.0" cy="90.0" r="6.4" fill="#9E9E9E"/>
<circle cx="450.0" cy="110.0" r="6.4" fill="#9E9E9E"/>
<circle cx="450.0" cy="130.0" r="6.4" fill="#9E9E9E"/>
<circle cx="450.0" cy="150.0" r="6.4" fill="#9E9E9E"/>
<circle cx="450.0" cy="170.0" r="6.4" fill="#9E9E9E"/>
<circle cx="450.0" cy="190.0" r="6.4" fill="#9E9E9E"/>
<circle cx="450.0" cy="210.0" r="6.4" fill="#9E9E9E"/>
<circle cx="450.0" cy="230.0" r="6.4" fill="#9E9E9E"/>
<circle cx="450.0" cy="250.0" r="6.4" fill="#9E9E9E"/>
<circle cx="450.0" cy="270.0" r="6.4" fill="#9E9E9E"/>
<circle cx="450.0" cy="290.0" r="6.4" fill="#9E9E9E"/>
<circle cx="450.0" cy="310.0" r="6.4" fill="#9E9E9E"/>
<circle cx="450.0" cy="330.0" r="6.4" fill="#9E9E9E"/>
<circle cx="450.0" cy="350.0" r="6.4" fill="#9E9E9E"/>
<circle cx="450.0" cy="370.0" r="6.4" fill="#9E9E9E"/>
<circle cx="450.0" cy="390.0" r="6.4" fill="#9E9E9E"/>
<circle cx="450.0" cy="410.0" r="6.4" fill="#9E9E9E"/>
<circle cx="450.0" cy="430.0" r="6.4" fill="#9E9E9E"/>
<circle cx="450.0" cy="450.0" r="6.4" fill="#9E9E9E"/>
<circle cx="450.0" cy="470.0" r="6.4" fill="#9E9E9E"/>
<circle cx="450.0" cy="490.0" r="6.4" fill="#9E9E9E"/>
<circle cx="470.0" cy="50.0" r="6.4" fill="#9E9E9E"/>
<circle cx="470.0" cy="70.0" r="6.4" fill="#9E9E9E"/>
<circle cx="470.0" cy="90.0" r="6.4" fill="#9E9E9E"/>
<circle cx="470.0" cy="110.0" r="6.4" fill="#9E9E9E"/>
<circle cx="470.0" cy="130.0" r="6.4" fill="#9E9E9E"/>
<circle cx="470.0" cy="150.0" r="6.4" fill="#9E9E9E"/>
<circle cx="470.0" cy="170.0" r="6.4" fill="#9E9E9E"/>
<circle cx="470.0" cy="190.0" r="6.4" fill="#9E9E9E"/>
<circle cx="470.0" cy="210.0" r="6.4" fill="#9E9E9E"/>
<circle cx="470.0" cy="230.0" r="6.4" fill="#9E9E9E"/>
<circle cx="470.0" cy="250.0" r="6.4" fill="#9E9E9E"/>
<circle cx="470.0" cy="270.0" r="6.4" fill="#9E9E9E"/>
<circle cx="470.0" cy="290.0" r="6.4" fill="#9E9E9E"/>
<circle cx="470.0" cy="310.0" r="6.4" fill="#9E9E9E"/>
<circle cx="470.0" cy="330.0" r="6.4" fill="#9E9E9E"/>
<circle cx="470.0" cy="350.0" r="6.4" fill="#9E9E9E"/>
<circle cx="470.0" cy="370.0" r="6.4" fill="#9E9E9E"/>
<circle cx="470.0" cy="390.0" r="6.4" fill="#9E9E9E"/>
<circle cx="470.0" cy="410.0" r="6.4" fill="#9E9E9E"/>
<circle cx="470.0" cy="430.0" r="6.4" fill="#9E9E9E"/>
<circle cx="470.0" cy="450.0" r="6.4" fill="#9E9E9E"/>
<circle cx="470.0" cy="470.0" r="6.4" fill="#9E9E9E"/>
<circle cx="470.0" cy="490.0" r="6.4" fill="#9E9E9E"/>
<circle cx="490.0" cy="50.0" r="6.4" fill="#9E9E9E"/>
<circle cx="490.0" cy="70.0" r="6.4" fill="#9E9E9E"/>
<circle cx="490.0" cy="90.0" r="6.4" fill="#9E9E9E"/>
<circle cx="490.0" cy="110.0" r="6.4" fill="#9E9E9E"/>
<circle cx="490.0" cy="130.0" r="6.4" fill="#9E9E9E"/>
<circle cx="490.0" cy="150.0" r="6.4" fill="#9E9E9E"/>
<circle cx="490.0" cy="170.0" r="6.4" fill="#9E9E9E"/>
<circle cx="490.0" cy="190.0" r="6.4" fill="#9E9E9E"/>
<circle cx="490.0" cy="210.0" r="6.4" fill="#9E9E9E"/>
<circle cx="490.0" cy="230.0" r="6.4" fill="#9E9E9E"/>
<circle cx="490.0" cy="250.0" r="6.4" fill="#9E9E9E"/>
<circle cx="490.0" cy="270.0" r="6.4" fill="#9E9E9E"/>
<circle cx="490.0" cy="290.0" r="6.4" fill="#9E9E9E"/>
<circle cx="490.0" cy="310.0" r="6.4" fill="#9E9E9E"/>
<circle cx="490.0" cy="330.0" r="6.4" fill="#9E9E9E"/>
<circle cx="490.0" cy="350.0" r="6.4" fill="#9E9E9E"/>
<circle cx="490.0" cy="370.0" r="6.4" fill="#9E9E9E"/>
<circle cx="490.0" cy="390.0" r="6.4" fill="#9E9E9E"/>
<circle cx="490.0" cy="410.0" r="6.4" fill="#9E9E9E"/>
<circle cx="490.0" cy="430.0" r="6.4" fill="#9E9E9E"/>
<circle cx="490.0" cy="450.0" r="6.4" fill="#9E9E9E"/>
<circle cx="490.0" cy="470.0" r="6.4" fill="#9E9E9E"/>
<circle cx="490.0" cy="490.0" r="6.4" fill="#9E9E9E"/>
<circle cx="510.0" cy="50.0" r="6.4" fill="#9E9E9E"/>
<circle cx="510.0" cy="70.0" r="6.4" fill="#9E9E9E"/>
<circle cx="510.0" cy="90.0" r="6.4" fill="#9E9E9E"/>
<circle cx="510.0" cy="110.0" r="6.4" fill="#9E9E9E"/>
<circle cx="510.0" cy="130.0" r="6.4" fill="#9E9E9E"/>
<circle cx="510.0" cy="150.0" r="6.4" fill="#9E9E9E"/>
<circle cx="510.0" cy="170.0" r="6.4" fill="#9E9E9E"/>
<circle cx="510.0" cy="190.0" r="6.4" fill="#9E9E9E"/>
<circle cx="510.0" cy="210.0" r="6.4" fill="#9E9E9E"/>
<circle cx="510.0" cy="230.0" r="6.4" fill="#9E9E9E"/>
<circle cx="510.0" cy="250.0" r="6.4" fill="#9E9E9E"/>
<circle cx="510.0" cy="270.0" r="6.4" fill="#9E9E9E"/>
<circle cx="510.0" cy="290.0" r="6.4" fill="#9E9E9E"/>
<circle cx="510.0" cy="310.0" r="6.4" fill="#9E9E9E"/>
<circle cx="510.0" cy="330.0" r="6.4" fill="#9E9E9E"/>
<circle cx="510.0" cy="350.0" r="6.4" fill="#9E9E9E"/>
<circle cx="510.0" cy="370.0" r="6.4" fill="#9E9E9E"/>
<circle cx="510.0" cy="390.0" r="6.4" fill="#9E9E9E"/>
<circle cx="510.0" cy="410.0" r="6.4" fill="#9E9E9E"/>
<circle cx="510.0" cy="430.0" r="6.4" fill="#9E9E9E"/>
<circle cx="510.0" cy="450.0" r="6.4" fill="#9E9E9E"/>
<circle cx="510.0" cy="470.0" r="6.4" fill="#9E9E9E"/>
<circle cx="510.0" cy="490.0" r="6.4" fill="#9E9E9E"/>
<circle cx="530.0" cy="50.0" r="6.4" fill="#9E9E9E"/>
<circle cx="530.0" cy="70.0" r="6.4" fill="#9E9E9E"/>
<circle cx="530.0" cy="90.0" r="6.4" fill="#9E9E9E"/>
<circle cx="530.0" cy="110.0" r="6.4" fill="#9E9E9E"/>
<circle cx="530.0" cy="130.0" r="6.4" fill="#9E9E9E"/>
<circle cx="530.0" cy="150.0" r="6.4" fill="#9E9E9E"/>
<circle cx="530.0" cy="170.0" r="6.4" fill="#9E9E9E"/>
<circle cx="530.0" cy="190.0" r="6.4" fill="#9E9E9E"/>
<circle cx="530.0" cy="210.0" r="6.4" fill="#9E9E9E"/>
<circle cx="530.0" cy="230.0" r="6.4" fill="#9E9E9E"/>
<circle cx="530.0" cy="250.0" r="6.4" fill="#9E9E9E"/>
<circle cx="530.0" cy="270.0" r="6.4" fill="#9E9E9E"/>
<circle cx="530.0" cy="290.0" r="6.4" fill="#9E9E9E"/>
<circle cx="530.0" cy="310.0" r="6.4" fill="#9E9E9E"/>
<circle cx="530.0" cy="330.0" r="6.4" fill="#9E9E9E"/>
<circle cx="530.0" cy="350.0" r="6.4" fill="#9E9E9E"/>
<circle cx="530.0" cy="370.0" r="6.4" fill="#9E9E9E"/>
<circle cx="530.0" cy="390.0" r="6.4" fill="#9E9E9E"/>
<circle cx="530.0" cy="410.0" r="6.4" fill="#9E9E9E"/>
<circle cx="530.0" cy="430.0" r="6.4" fill="#9E9E9E"/>
<circle cx="530.0" cy="450.0" r="6.4" fill="#9E9E9E"/>
<circle cx="530.0" cy="470.0" r="6.4" fill="#9E9E9E"/>
<circle cx="530.0" cy="490.0" r="6.4" fill="#9E9E9E"/>
<circle cx="550.0" cy="50.0" r="6.4" fill="#9E9E9E"/>
<circle cx="550.0" cy="70.0" r="6.4" fill="#9E9E9E"/>
<circle cx="550.0" cy="90.0" r="6.4" fill="#9E9E9E"/>
<circle cx="550.0" cy="110.0" r="6.4" fill="#9E9E9E"/>
<circle cx="550.0" cy="130.0" r="6.4" fill="#9E9E9E"/>
<circle cx="550.0" cy="150.0" r="6.4" fill="#9E9E9E"/>
<circle cx="550.0" cy="170.0" r="6.4" fill="#9E9E9E"/>
<circle cx="550.0" cy="190.0" r="6.4" fill="#9E9E9E"/>
<circle cx="550.0" cy="210.0" r="6.4" fill="#9E9E9E"/>
<circle cx="550.0" cy="230.0" r="6.4" fill="#9E9E9E"/>
<circle cx="550.0" cy="250.0" r="6.4" fill="#9E9E9E"/>
<circle cx="550.0" cy="270.0" r="6.4" fill="#9E9E9E"/>
<circle cx="550.0" cy="290.0" r="6.4" fill="#9E9E9E"/>
<circle cx="550.0" cy="310.0" r="6.4" fill="#9E9E9E"/>
<circle cx="550.0" cy="330.0" r="6.4" fill="#9E9E9E"/>
<circle cx="550.0" cy="350.0" r="6.4" fill="#9E9E9E"/>
<circle cx="550.0" cy="370.0" r="6.4" fill="#9E9E9E"/>
<circle cx="550.0" cy="390.0" r="6.4" fill="#9E9E9E"/>
<circle cx="550.0" cy="410.0" r="6.4" fill="#9E9E9E"/>
<circle cx="550.0" cy="430.0" r="6.4" fill="#9E9E9E"/>
<circle cx="550.0" cy="450.0" r="6.4" fill="#9E9E9E"/>
<circle cx="550.0" cy="470.0" r="6.4" fill="#9E9E9E"/>
<circle cx="550.0" cy="490.0" r="6.4" fill="#9E9E9E"/>
<circle cx="570.0" cy="50.0" r="6.4" fill="#9E9E9E"/>
<circle cx="570.0" cy="70.0" r="6.4" fill="#9E9E9E"/>
<circle cx="570.0" cy="90.0" r="6.4" fill="#9E9E9E"/>
<circle cx="570.0" cy="110.0" r="6.4" fill="#9E9E9E"/>
<circle cx="570.0" cy="130.0" r="6.4" fill="#9E9E9E"/>
<circle cx="570.0" cy="150.0" r="6.4" fill="#9E9E9E"/>
<circle cx="570.0" cy="170.0" r="6.4" fill="#9E9E9E"/>
<circle cx="570.0" cy="190.0" r="6.4" fill="#9E9E9E"/>
<circle cx="570.0" cy="210.0" r="6.4" fill="#9E9E9E"/>
<circle cx="570.0" cy="230.0" r="6.4" fill="#9E9E9E"/>
<circle cx="570.0" cy="250.0" r="6.4" fill="#9E9E9E"/>
<circle cx="570.0" cy="270.0" r="6.4" fill="#9E9E9E"/>
<circle cx="570.0" cy="290.0" r="6.4" fill="#9E9E9E"/>
<circle cx="570.0" cy="310.0" r="6.4" fill="#9E9E9E"/>
<circle cx="570.0" cy="330.0" r="6.4" fill="#9E9E9E"/>
<circle cx="570.0" cy="350.0" r="6.4" fill="#9E9E9E"/>
<circle cx="570.0" cy="370.0" r="6.4" fill="#9E9E9E"/>
<circle cx="570.0" cy="390.0" r="6.4" fill="#9E9E9E"/>
<circle cx="570.0" cy="410.0" r="6.4" fill="#9E9E9E"/>
<circle cx="570.0" cy="430.0" r="6.4" fill="#9E9E9E"/>
<circle cx="570.0" cy="450.0" r="6.4" fill="#9E9E9E"/>
<circle cx="570.0" cy="470.0" r="6.4" fill="#9E9E9E"/>
<circle cx="570.0" cy="490.0" r="6.4" fill="#9E9E9E"/>
<circle cx="590.0" cy="50.0" r="6.4" fill="#9E9E9E"/>
<circle cx="590.0" cy="70.0" r="6.4" fill="#9E9E9E"/>
<circle cx="590.0" cy="90.0" r="6.4" fill="#9E9E9E"/>
<circle cx="590.0" cy="110.0" r="6.4" fill="#9E9E9E"/>
<circle cx="590.0" cy="130.0" r="6.4" fill="#9E9E9E"/>
<circle cx="590.0" cy="150.0" r="6.4" fill="#9E9E9E"/>
<circle cx="590.0" cy="170.0" r="6.4" fill="#9E9E9E"/>
<circle cx="590.0" cy="190.0" r="6.4" fill="#9E9E9E"/>
<circle cx="590.0" cy="210.0" r="6.4" fill="#9E9E9E"/>
<circle cx="590.0" cy="230.0" r="6.4" fill="#9E9E9E"/>
<circle cx="590.0" cy="250.0" r="6.4" fill="#9E9E9E"/>
<circle cx="590.0" cy="270.0" r="6.4" fill="#9E9E9E"/>
<circle cx="590.0" cy="290.0" r="6.4" fill="#9E9E9E"/>
<circle cx="590.0" cy="310.0" r="6.4" fill="#9E9E9E"/>
<circle cx="590.0" cy="330.0" r="6.4" fill="#9E9E9E"/>
<circle cx="590.0" cy="350.0" r="6.4" fill="#9E9E9E"/>
<circle cx="590.0" cy="370.0" r="6.4" fill="#9E9E9E"/>
<circle cx="590.0" cy="390.0" r="6.4" fill="#9E9E9E"/>
<circle cx="590.0" cy="410.0" r="6.4" fill="#9E9E9E"/>
<circle cx="590.0" cy="430.0" r="6.4" fill="#9E9E9E"/>
<circle cx="590.0" cy="450.0" r="6.4" fill="#9E9E9E"/>
<circle cx="590.0" cy="470.0" r="6.4" fill="#9E9E9E"/>
<circle cx="590.0" cy="490.0" r="6.4" fill="#9E9E9E"/>
<circle cx="610.0" cy="50.0" r="6.4" fill="#9E9E9E"/>
<circle cx="610.0" cy="70.0" r="6.4" fill="#9E9E9E"/>
<circle cx="610.0" cy="90.0" r="6.4" fill="#9E9E9E"/>
<circle cx="610.0" cy="110.0" r="6.4" fill="#9E9E9E"/>
<circle cx="610.0" cy="130.0" r="6.4" fill="#9E9E9E"/>
<circle cx="610.0" cy="150.0" r="6.4" fill="#9E9E9E"/>
<circle cx="610.0" cy="170.0" r="6.4" fill="#9E9E9E"/>
<circle cx="610.0" cy="190.0" r="6.4" fill="#9E9E9E"/>
<circle cx="610.0" cy="210.0" r="6.4" fill="#9E9E9E"/>
<circle cx="610.0" cy="230.0" r="6.4" fill="#9E9E9E"/>
<circle cx="610.0" cy="250.0" r="6.4" fill="#9E9E9E"/>
<circle cx="610.0" cy="270.0" r="6.4" fill="#9E9E9E"/>
<circle cx="610.0" cy="290.0" r="6.4" fill="#9E9E9E"/>
<circle cx="610.0" cy="310.0" r="6.4" fill="#9E9E9E"/>
<circle cx="610.0" cy="330.0" r="6.4" fill="#9E9E9E"/>
<circle cx="610.0" cy="350.0" r="6.4" fill="#9E9E9E"/>
<circle cx="610.0" cy="370.0" r="6.4" fill="#9E9E9E"/>
<circle cx="610.0" cy="390.0" r="6.4" fill="#9E9E9E"/>
<circle cx="610.0" cy="410.0" r="6.4" fill="#9E9E9E"/>
<circle cx="610.0" cy="430.0" r="6.4" fill="#9E9E9E"/>
<circle cx="610.0" cy="450.0" r="6.4" fill="#9E9E9E"/>
<circle cx="610.0" cy="470.0" r="6.4" fill="#9E9E9E"/>
<circle cx="610.0" cy="490.0" r="6.4" fill="#9E9E9E"/>
</svg>